<svg width="159" height="159" viewBox="0 0 159 159" fill="none" xmlns="http://www.w3.org/2000/svg">
<circle cx="78.5" cy="79.5" r="61.5" fill="#FF9900" fill-opacity="0.5"/>
<path d="M79.5 0L148.349 119.25H10.651L79.5 0Z" fill="#FF3030" fill-opacity="0.5"/>
<path d="M79.5 26L99.9304 44.2411L126 52.75L120.361 79.5L126 106.25L99.9304 114.759L79.5 133L59.0696 114.759L33 106.25L38.6392 79.5L33 52.75L59.0696 44.2411L79.5 26Z" fill="#FA00FF" fill-opacity="0.5"/>
<path d="M79.6099 42L93.4982 54.4448L111.22 60.25L107.386 78.5L111.22 96.75L93.4982 102.555L79.6099 115L65.7217 102.555L48 96.75L51.8334 78.5L48 60.25L65.7217 54.4448L79.6099 42Z" fill="#0CA7FF" fill-opacity="0.5"/>
<path d="M78.5 57L87.0676 64.6715L98 68.25L95.6352 79.5L98 90.75L87.0676 94.3285L78.5 102L69.9324 94.3285L59 90.75L61.3648 79.5L59 68.25L69.9324 64.6715L78.5 57Z" fill="#33FF00" fill-opacity="0.5"/>
<path d="M78.5 66L83.5527 70.4324L90 72.5L88.6054 79L90 85.5L83.5527 87.5676L78.5 92L73.4473 87.5676L67 85.5L68.3946 79L67 72.5L73.4473 70.4324L78.5 66Z" fill="#FF0000" fill-opacity="0.25"/>
</svg>
